<?xml version="1.0" encoding="utf-8"?>
<!-- Generator: Adobe Illustrator 16.0.0, SVG Export Plug-In . SVG Version: 6.00 Build 0)  -->
<!DOCTYPE svg PUBLIC "-//W3C//DTD SVG 1.1//EN" "http://www.w3.org/Graphics/SVG/1.1/DTD/svg11.dtd">
<svg version="1.1" id="Layer_1" xmlns="http://www.w3.org/2000/svg" xmlns:xlink="http://www.w3.org/1999/xlink" x="0px" y="0px"
	 width="128px" height="128px" viewBox="0 0 128 128" enable-background="new 0 0 128 128" xml:space="preserve">
<line fill="none" stroke="#000000" stroke-miterlimit="10" x1="40" y1="51" x2="31" y2="43"/>
<line fill="none" stroke="#000000" stroke-miterlimit="10" x1="31" y1="43" x2="16" y2="43"/>
<line fill="none" stroke="#000000" stroke-miterlimit="10" x1="16" y1="43" x2="8" y2="52"/>
<line fill="none" stroke="#000000" stroke-miterlimit="10" x1="8" y1="52" x2="8" y2="70"/>
<line fill="none" stroke="#000000" stroke-miterlimit="10" x1="8" y1="70" x2="15" y2="76"/>
<line fill="none" stroke="#000000" stroke-miterlimit="10" x1="15" y1="76" x2="31" y2="76"/>
<line fill="none" stroke="#000000" stroke-miterlimit="10" x1="31" y1="76" x2="42" y2="65"/>
<line fill="none" stroke="#000000" stroke-miterlimit="10" x1="42" y1="65" x2="42" y2="70"/>
<line fill="none" stroke="#000000" stroke-miterlimit="10" x1="42" y1="65" x2="31" y2="65"/>
<line fill="none" stroke="#000000" stroke-miterlimit="10" x1="72" y1="43" x2="72" y2="76"/>
<line fill="none" stroke="#000000" stroke-miterlimit="10" x1="72" y1="43" x2="51" y2="64"/>
<line fill="none" stroke="#000000" stroke-miterlimit="10" x1="51" y1="64" x2="77" y2="64"/>
<line fill="none" stroke="#000000" stroke-miterlimit="10" x1="99" y1="43" x2="93" y2="51"/>
<line fill="none" stroke="#000000" stroke-miterlimit="10" x1="99" y1="43" x2="109" y2="43"/>
<line fill="none" stroke="#000000" stroke-miterlimit="10" x1="99" y1="57" x2="93" y2="51"/>
<line fill="none" stroke="#000000" stroke-miterlimit="10" x1="109" y1="43" x2="115" y2="51"/>
<line fill="none" stroke="#000000" stroke-miterlimit="10" x1="115" y1="51" x2="109" y2="57"/>
<line fill="none" stroke="#000000" stroke-miterlimit="10" x1="99" y1="57" x2="109" y2="57"/>
<line fill="none" stroke="#000000" stroke-miterlimit="10" x1="99" y1="57" x2="91" y2="66"/>
<line fill="none" stroke="#000000" stroke-miterlimit="10" x1="98" y1="75" x2="91" y2="66"/>
<line fill="none" stroke="#000000" stroke-miterlimit="10" x1="109" y1="57" x2="117" y2="66"/>
<line fill="none" stroke="#000000" stroke-miterlimit="10" x1="117" y1="66" x2="111" y2="75"/>
<line fill="none" stroke="#000000" stroke-miterlimit="10" x1="98" y1="75" x2="111" y2="75"/>
</svg>
